
<svg width="100" height="100" viewBox="0 0 100 100" xmlns="http://www.w3.org/2000/svg">
  <defs>
    <pattern id="mystical-pattern" patternUnits="userSpaceOnUse" width="100" height="100">
      <circle cx="10" cy="10" r="2" fill="#9b87f5" fill-opacity="0.1" />
      <circle cx="30" cy="20" r="1.5" fill="#9b87f5" fill-opacity="0.1" />
      <circle cx="50" cy="10" r="3" fill="#9b87f5" fill-opacity="0.1" />
      <circle cx="70" cy="30" r="2" fill="#9b87f5" fill-opacity="0.1" />
      <circle cx="90" cy="40" r="1" fill="#9b87f5" fill-opacity="0.1" />
      <circle cx="20" cy="60" r="2.5" fill="#9b87f5" fill-opacity="0.1" />
      <circle cx="40" cy="80" r="1.5" fill="#9b87f5" fill-opacity="0.1" />
      <circle cx="60" cy="70" r="2" fill="#9b87f5" fill-opacity="0.1" />
      <circle cx="80" cy="90" r="3" fill="#9b87f5" fill-opacity="0.1" />
      <path d="M10,40 L20,50 L10,60 Z" fill="#9b87f5" fill-opacity="0.05" />
      <path d="M60,30 L70,40 L80,30 Z" fill="#9b87f5" fill-opacity="0.05" />
      <path d="M30,70 L40,80 L50,70 Z" fill="#9b87f5" fill-opacity="0.05" />
      <line x1="10" y1="10" x2="30" y2="30" stroke="#9b87f5" stroke-opacity="0.07" stroke-width="0.5" />
      <line x1="50" y1="10" x2="70" y2="30" stroke="#9b87f5" stroke-opacity="0.07" stroke-width="0.5" />
      <line x1="20" y1="60" x2="40" y2="80" stroke="#9b87f5" stroke-opacity="0.07" stroke-width="0.5" />
      <line x1="60" y1="70" x2="80" y2="90" stroke="#9b87f5" stroke-opacity="0.07" stroke-width="0.5" />
    </pattern>
  </defs>
  <rect width="100" height="100" fill="url(#mystical-pattern)" />
</svg>
